<?xml version="1.0" encoding="UTF-8" standalone="no"?>
<svg
   xmlns:dc="http://purl.org/dc/elements/1.1/"
   xmlns:cc="http://creativecommons.org/ns#"
   xmlns:rdf="http://www.w3.org/1999/02/22-rdf-syntax-ns#"
   xmlns:svg="http://www.w3.org/2000/svg"
   xmlns="http://www.w3.org/2000/svg"
   viewBox="0 0 708.4149 708.41411"
   height="708.41412"
   width="708.41492"
   xml:space="preserve"
   id="svg2"
   version="1.1"><metadata
     id="metadata8"><rdf:RDF><cc:Work
         rdf:about=""><dc:format>image/svg+xml</dc:format><dc:type
           rdf:resource="http://purl.org/dc/dcmitype/StillImage" /><dc:title></dc:title></cc:Work></rdf:RDF></metadata><defs
     id="defs6"><clipPath
       id="clipPath18"
       clipPathUnits="userSpaceOnUse"><path
         id="path16"
         d="M 0,2000 H 2000 V 0 H 0 Z" /></clipPath></defs><g
     transform="matrix(1.3333333,0,0,-1.3333333,-979.12558,1687.5405)"
     id="g10"><g
       id="g12"><g
         clip-path="url(#clipPath18)"
         id="g14"><g
           transform="translate(772.1414,1265.6554)"
           id="g20"><path
             id="path22"
             style="fill:#de3c28;fill-opacity:1;fill-rule:nonzero;stroke:none"
             d="m 0,0 c -20.875,0 -37.797,-16.922 -37.797,-37.797 v -126.348 -25.917 -212.342 L 345.882,0 Z" /></g><g
           transform="translate(956.8504,734.3448)"
           id="g24"><path
             id="path26"
             style="fill:#af1419;fill-opacity:1;fill-rule:nonzero;stroke:none"
             d="m 0,0 h 260.209 c 26.839,0 48.596,21.757 48.596,48.596 v 275.281 z" /></g><g
           transform="translate(1265.6552,1075.5929)"
           id="g28"><path
             id="path30"
             style="fill:#db0918;fill-opacity:1;fill-rule:nonzero;stroke:none"
             d="m 0,0 v 25.918 126.348 c 0,20.875 -16.922,37.796 -37.796,37.796 h -109.836 l -383.679,-402.404 v -80.31 c 0,-26.839 21.757,-48.596 48.596,-48.596 h 173.91 L 0,-17.371 Z" /></g><g
           transform="translate(1169.2147,909.6954)"
           id="g32"><path
             id="path34"
             style="fill:#ffffff;fill-opacity:1;fill-rule:nonzero;stroke:none"
             d="m 0,0 h -138.227 c -9.129,0 -16.528,7.4 -16.528,16.529 0,9.128 7.399,16.529 16.528,16.529 H 0 c 9.129,0 16.528,-7.401 16.528,-16.529 C 16.528,7.4 9.129,0 0,0" /></g><g
           transform="translate(898.8318,1033.5314)"
           id="g36"><path
             id="path38"
             style="fill:#ffffff;fill-opacity:1;fill-rule:nonzero;stroke:none"
             d="m 0,0 c 2.86,-0.72 5.65,-1.45 8.37,-2.2 -0.63,-8.56 -7.76,-15.3 -16.479,-15.3 -9.13,0 -16.531,7.4 -16.531,16.53 v 8.54 c 1.861,-0.83 3.72,-1.549 5.601,-2.15 C -15.199,4.18 -8.85,2.37 0,0" /></g><g
           transform="translate(907.2527,1150.7814)"
           id="g40"><path
             id="path42"
             style="fill:#ffffff;fill-opacity:1;fill-rule:nonzero;stroke:none"
             d="m 0,0 v -65.81 c -4.45,1.59 -9.98,2.38 -16.601,2.38 -6.21,0 -11.7,-0.88 -16.46,-2.64 V 0 c 0,9.13 7.401,16.53 16.531,16.53 C -7.4,16.53 0,9.13 0,0" /></g><g
           transform="translate(874.1922,868.8272)"
           id="g44"><path
             id="path46"
             style="fill:#ffffff;fill-opacity:1;fill-rule:nonzero;stroke:none"
             d="m 0,0 v 65.811 c 4.45,-1.59 9.98,-2.38 16.601,-2.38 6.21,0 11.699,0.88 16.46,2.639 V 0 C 33.061,-9.13 25.66,-16.529 16.53,-16.529 7.4,-16.529 0,-9.13 0,0" /></g><g
           transform="translate(966.6326,994.1915)"
           id="g48"><path
             id="path50"
             style="fill:#ffffff;fill-opacity:1;fill-rule:nonzero;stroke:none"
             d="m 0,0 c -3.53,7.28 -8.45,13.3 -14.75,18.06 -6.301,4.76 -13.95,8.8 -22.94,12.14 -6.661,2.47 -13.911,4.78 -21.741,6.94 -2.719,0.75 -5.509,1.48 -8.37,2.2 -8.849,2.37 -15.199,4.18 -19.039,5.42 -1.881,0.6 -3.74,1.32 -5.6,2.15 -1.951,0.87 -3.88,1.87 -5.8,2.99 -3.76,2.19 -6.71,4.81 -8.861,7.85 -2.139,3.05 -3.219,6.67 -3.219,10.86 0,6.75 3.16,12.54 9.46,17.34 2.49,1.9 5.299,3.43 8.42,4.57 4.759,1.76 10.25,2.64 16.46,2.64 6.62,0 12.15,-0.79 16.6,-2.38 3.01,-1.05 5.52,-2.48 7.54,-4.26 5.01,-4.42 9.3,-10.59 12.88,-18.49 2.77,-5.52 5.34,-9.49 7.71,-11.92 2.37,-2.43 5.84,-3.64 10.399,-3.64 5.011,0 9.191,2.02 12.54,6.07 3.351,4.04 5.031,8.59 5.031,13.63 0,5.52 -1.34,11.19 -4.021,17 -2.689,5.8 -6.939,11.35 -12.75,16.63 -5.809,5.28 -13.119,9.52 -21.929,12.71 -5.23,1.89 -11.031,3.22 -17.4,3.99 -4.37,0.53 -9.011,0.79 -13.921,0.79 -6.779,0 -13.159,-0.48 -19.139,-1.45 -7.361,-1.19 -14.121,-3.11 -20.29,-5.76 -11.18,-4.81 -19.72,-11.69 -25.621,-20.63 -5.899,-8.95 -8.849,-19.18 -8.849,-30.7 0,-12.09 2.79,-22.2 8.38,-30.34 5.59,-8.14 13.15,-14.56 22.67,-19.28 9.52,-4.71 21.349,-8.83 35.48,-12.35 10.55,-2.57 18.98,-4.99 25.279,-7.28 6.301,-2.28 11.441,-5.59 15.42,-9.92 3.981,-4.33 5.971,-9.97 5.971,-16.92 0,-8.76 -3.69,-16.06 -11.061,-21.92 -7.379,-5.85 -16.969,-8.78 -28.769,-8.78 -8.59,0 -15.521,1.45 -20.79,4.36 -5.28,2.9 -9.37,6.59 -12.28,11.06 -2.901,4.47 -5.611,10.04 -8.111,16.71 -2.059,5.61 -4.54,9.85 -7.449,12.7 -2.9,2.86 -6.46,4.29 -10.66,4.29 -5.181,0 -9.45,-1.84 -12.811,-5.5 -3.349,-3.66 -5.029,-8.07 -5.029,-13.21 0,-8.85 2.8,-17.96 8.39,-27.34 5.58,-9.38 12.849,-16.87 21.79,-22.49 12.61,-7.8 28.61,-11.7 48.019,-11.7 16.181,0 30.181,2.85 41.981,8.56 11.809,5.71 20.769,13.61 26.9,23.7 6.119,10.09 9.18,21.47 9.18,34.129 C 5.3,-16.21 3.54,-7.28 0,0" /></g></g></g></g></svg>